<svg xmlns="http://www.w3.org/2000/svg" width="800" height="500" viewBox="0 0 800 500">
  <defs>
    <linearGradient id="bg" x1="0" y1="0" x2="1" y2="1">
      <stop offset="0" stop-color="#4f46e5" stop-opacity="0.40"/>
      <stop offset="1" stop-color="#0ea5e9" stop-opacity="0.15"/>
    </linearGradient>
  </defs>
  <rect width="800" height="500" fill="url(#bg)"/>
  <g fill="none" stroke="#ffffff" stroke-opacity="0.78" stroke-width="8" stroke-linecap="round" stroke-linejoin="round">
    <path d="M300 120 L340 90 L460 90 L500 120"/>
    <path d="M270 170 L340 120 L460 120 L530 170"/>
    <path d="M310 160 L280 420 L520 420 L490 160"/>
    <path d="M390 150 C400 185 420 185 430 150"/>
    <path d="M370 150 C360 185 340 185 330 150"/>
    <path d="M400 210 C380 250 380 260 400 290 C420 260 420 250 400 210 Z"/>
  </g>
  <text x="50%" y="78%" text-anchor="middle" font-family="Arial, sans-serif" font-size="42" fill="#ffffff" fill-opacity="0.9">
    Hoodie
  </text>
</svg>

